<svg width="30" height="30" viewBox="0 0 30 30" fill="none" xmlns="http://www.w3.org/2000/svg">
<g opacity="0.4">
<rect x="0.5" y="0.5" width="29" height="29" rx="14.5" stroke="white"/>
<path d="M21.6667 8.33337H8.33332C7.41285 8.33337 6.66666 9.07957 6.66666 10V10.8334C6.66666 11.7538 7.41285 12.5 8.33332 12.5H21.6667C22.5871 12.5 23.3333 11.7538 23.3333 10.8334V10C23.3333 9.07957 22.5871 8.33337 21.6667 8.33337Z" stroke="white" stroke-width="2" stroke-linecap="round" stroke-linejoin="round"/>
<path d="M8.33334 12.5V20C8.33334 20.442 8.50894 20.866 8.8215 21.1785C9.13406 21.4911 9.55798 21.6667 10 21.6667H20C20.442 21.6667 20.866 21.4911 21.1785 21.1785C21.4911 20.866 21.6667 20.442 21.6667 20V12.5" stroke="white" stroke-width="2" stroke-linecap="round" stroke-linejoin="round"/>
<path d="M13.3333 15.8334H16.6667" stroke="white" stroke-width="2" stroke-linecap="round" stroke-linejoin="round"/>
</g>
</svg>
