<svg width="180" height="26" viewBox="0 0 180 26" fill="none" xmlns="http://www.w3.org/2000/svg">
<path d="M16.9545 7.98604C16.9545 8.93938 16.7118 9.84938 16.2265 10.716C15.7585 11.5827 15.1172 12.3454 14.3025 13.004C13.5052 13.6454 12.5605 14.1567 11.4685 14.538C10.3938 14.9194 9.24984 15.11 8.0365 15.11C7.60317 15.11 7.2565 15.058 6.9965 14.954C6.75384 14.8327 6.4765 14.6074 6.1645 14.278C5.29784 16.1674 4.58717 17.9094 4.0325 19.504C3.49517 21.0814 3.0705 22.6154 2.7585 24.106C2.09984 23.95 1.5625 23.6727 1.1465 23.274C0.730502 22.8927 0.349169 22.4074 0.00250244 21.818C0.175836 21.4887 0.383835 21.0554 0.626502 20.518C0.869169 19.9807 1.16384 19.322 1.5105 18.542C1.85717 17.7447 2.25584 16.8 2.7065 15.708C3.1745 14.5987 3.7205 13.3074 4.3445 11.834C4.62184 11.158 4.8645 10.5687 5.0725 10.066C5.2805 9.56338 5.4625 9.09538 5.6185 8.66204C5.7745 8.21138 5.91317 7.76938 6.0345 7.33604C6.17317 6.90271 6.31184 6.42604 6.4505 5.90604C5.63584 6.16604 4.88184 6.46938 4.1885 6.81604C3.5125 7.16271 2.94917 7.52671 2.4985 7.90804C2.3425 7.80404 2.17784 7.64804 2.0045 7.44004C1.8485 7.23204 1.70117 7.00671 1.5625 6.76404C1.42384 6.50404 1.3025 6.24404 1.1985 5.98404C1.0945 5.72404 1.03384 5.49004 1.0165 5.28204C1.51917 4.93538 2.14317 4.61471 2.8885 4.32004C3.63384 4.02538 4.43117 3.77404 5.2805 3.56604C6.12984 3.34071 7.00517 3.16738 7.9065 3.04604C8.82517 2.92471 9.7005 2.86404 10.5325 2.86404C11.5205 2.86404 12.4132 2.99404 13.2105 3.25404C14.0078 3.49671 14.6838 3.84338 15.2385 4.29404C15.7932 4.74471 16.2178 5.28204 16.5125 5.90604C16.8072 6.53004 16.9545 7.22338 16.9545 7.98604ZM12.3265 4.86604C11.6678 4.86604 10.9918 4.91804 10.2985 5.02204L10.6105 5.49004C10.4372 5.71538 10.2205 6.05338 9.9605 6.50404C9.7005 6.95471 9.4145 7.50071 9.1025 8.14204C8.7905 8.76604 8.44384 9.46804 8.0625 10.248C7.6985 11.028 7.3085 11.8514 6.8925 12.718C8.2445 12.718 9.47517 12.5967 10.5845 12.354C11.6938 12.094 12.6385 11.7474 13.4185 11.314C14.2158 10.8634 14.8312 10.3434 15.2645 9.75404C15.7152 9.16471 15.9405 8.53204 15.9405 7.85604C15.9405 6.95471 15.6372 6.23538 15.0305 5.69804C14.4238 5.14338 13.5225 4.86604 12.3265 4.86604Z" fill="white"/>
<path d="M24.7025 11.236C24.6332 12.3107 24.4425 13.238 24.1305 14.018C23.8185 14.7807 23.3678 15.4567 22.7785 16.046C22.2065 16.618 21.5045 17.138 20.6725 17.606C19.8405 18.074 18.8698 18.5247 17.7605 18.958C17.7605 19.062 17.7518 19.1747 17.7345 19.296C17.7345 19.4 17.7345 19.5127 17.7345 19.634C17.7345 19.8594 17.7518 20.0934 17.7865 20.336C17.8212 20.5787 17.8818 20.804 17.9685 21.012C18.0552 21.22 18.1765 21.3934 18.3325 21.532C18.4885 21.6534 18.6878 21.714 18.9305 21.714C19.3985 21.714 19.8578 21.61 20.3085 21.402C20.7592 21.194 21.1838 20.9427 21.5825 20.648C21.9985 20.336 22.3798 20.0067 22.7265 19.66C23.0905 19.296 23.4112 18.9667 23.6885 18.672C23.8618 18.828 24.0092 18.9754 24.1305 19.114C23.3505 20.154 22.4925 21.0207 21.5565 21.714C20.6378 22.39 19.7625 22.8234 18.9305 23.014C17.7345 22.8754 16.7985 22.442 16.1225 21.714C15.4638 20.9687 15.1345 20.076 15.1345 19.036C15.1345 18.3254 15.2298 17.606 15.4205 16.878C15.6285 16.1327 15.9058 15.422 16.2525 14.746C16.6165 14.0527 17.0325 13.4027 17.5005 12.796C17.9858 12.1894 18.4972 11.6607 19.0345 11.21C19.5892 10.7594 20.1525 10.404 20.7245 10.144C21.3138 9.88404 21.8945 9.75404 22.4665 9.75404C23.2638 9.85804 24.0092 10.352 24.7025 11.236ZM22.9085 12.094C22.4405 12.1634 21.9552 12.354 21.4525 12.666C20.9498 12.978 20.4732 13.394 20.0225 13.914C19.5892 14.434 19.1905 15.0407 18.8265 15.734C18.4625 16.4274 18.1765 17.1727 17.9685 17.97C19.3552 17.2767 20.5078 16.4274 21.4265 15.422C22.3452 14.3994 22.8392 13.29 22.9085 12.094Z" fill="white"/>
<path d="M25.2822 21.48C25.3689 20.9774 25.5162 20.3187 25.7242 19.504C25.9496 18.672 26.2096 17.7967 26.5042 16.878C26.7989 15.942 27.1109 15.006 27.4402 14.07C27.7696 13.134 28.0902 12.2934 28.4022 11.548C28.6276 11.0107 28.8269 10.5947 29.0002 10.3C29.1736 9.98804 29.3642 9.72804 29.5722 9.52004C29.8149 9.55471 30.0662 9.61538 30.3262 9.70204C30.5862 9.78871 30.8376 9.89271 31.0802 10.014C31.3229 10.1354 31.5396 10.2654 31.7302 10.404C31.9209 10.5254 32.0682 10.6467 32.1722 10.768C31.7042 11.3227 31.2882 11.9554 30.9242 12.666C30.5776 13.3767 30.2222 14.2867 29.8582 15.396C30.7942 14.564 31.6176 13.7667 32.3282 13.004C33.0562 12.2414 33.7322 11.392 34.3562 10.456C34.4602 10.3694 34.6422 10.326 34.9022 10.326C35.1449 10.326 35.3789 10.3694 35.6042 10.456C35.8296 10.5254 35.9856 10.6294 36.0722 10.768C35.7602 11.6 35.6042 12.4234 35.6042 13.238C35.6042 14.0007 35.7169 14.5727 35.9422 14.954C35.9249 15.058 35.8036 15.2574 35.5782 15.552C35.3702 15.8467 35.1362 16.124 34.8762 16.384C34.4082 16.1414 33.9922 15.812 33.6282 15.396C33.2642 14.9627 32.9956 14.4947 32.8222 13.992C32.0076 14.564 31.3142 15.1274 30.7422 15.682C30.1702 16.2194 29.6762 16.826 29.2602 17.502C28.8616 18.1607 28.5149 18.9234 28.2202 19.79C27.9429 20.6567 27.6742 21.688 27.4142 22.884C27.2582 22.8667 27.0676 22.806 26.8422 22.702C26.6342 22.6154 26.4176 22.5027 26.1922 22.364C25.9842 22.2254 25.7936 22.078 25.6202 21.922C25.4469 21.766 25.3342 21.6187 25.2822 21.48Z" fill="white"/>
<path d="M44.9563 11.652C44.939 11.9814 44.8783 12.328 44.7743 12.692C44.6876 13.0387 44.575 13.3594 44.4363 13.654C44.2976 13.9314 44.1503 14.1654 43.9943 14.356C43.8383 14.5467 43.691 14.642 43.5523 14.642C43.3616 14.6247 43.249 14.4947 43.2143 14.252C43.2143 14.2 43.2316 14.122 43.2663 14.018C43.3183 13.8967 43.3703 13.7667 43.4223 13.628C43.4743 13.4894 43.5176 13.3507 43.5523 13.212C43.6043 13.0734 43.6303 12.952 43.6303 12.848C43.6303 12.6054 43.5696 12.406 43.4483 12.25C43.3443 12.0767 43.197 11.99 43.0063 11.99C42.313 11.99 41.7843 12.4234 41.4203 13.29C41.0563 14.1567 40.8743 15.4307 40.8743 17.112C40.8743 17.2854 40.883 17.3894 40.9003 17.424C41.2643 17.4067 41.585 17.398 41.8623 17.398C42.157 17.3807 42.443 17.372 42.7203 17.372C42.7376 17.4067 42.7463 17.476 42.7463 17.58C42.7463 17.736 42.7116 17.8487 42.6423 17.918C42.2436 18.0047 41.923 18.0827 41.6803 18.152C41.455 18.204 41.2816 18.256 41.1603 18.308C41.039 18.36 40.961 18.4207 40.9263 18.49C40.909 18.542 40.9003 18.62 40.9003 18.724C40.9003 18.8627 40.9003 19.0014 40.9003 19.14C40.9176 19.2787 40.9263 19.452 40.9263 19.66C40.9263 21.116 40.5276 22.286 39.7303 23.17C38.9503 24.054 37.8583 24.5654 36.4543 24.704C36.2116 24.6867 35.9603 24.6174 35.7003 24.496C35.4403 24.3747 35.189 24.2187 34.9463 24.028C34.721 23.8374 34.5216 23.6207 34.3483 23.378C34.175 23.1527 34.0536 22.9187 33.9843 22.676C33.9843 22.0174 34.123 21.3934 34.4003 20.804C34.6776 20.1974 35.0503 19.6687 35.5183 19.218C36.0036 18.75 36.567 18.3774 37.2083 18.1C37.867 17.8054 38.5776 17.632 39.3403 17.58C39.3403 17.1467 39.297 16.722 39.2103 16.306C39.1236 15.89 39.0283 15.4914 38.9243 15.11C38.8376 14.7114 38.751 14.33 38.6643 13.966C38.5776 13.5847 38.5343 13.212 38.5343 12.848C38.5343 12.38 38.6296 11.9207 38.8203 11.47C39.011 11.002 39.2623 10.5774 39.5743 10.196C39.8863 9.79738 40.2503 9.45938 40.6663 9.18204C41.0823 8.90471 41.5156 8.71404 41.9663 8.61004C42.157 8.66204 42.4083 8.81804 42.7203 9.07804C43.0496 9.32071 43.3703 9.59804 43.6823 9.91004C43.9943 10.222 44.2716 10.5427 44.5143 10.872C44.757 11.184 44.9043 11.444 44.9563 11.652ZM36.3763 23.508C36.7923 23.3347 37.1823 23.0834 37.5463 22.754C37.9276 22.4247 38.257 22.052 38.5343 21.636C38.8116 21.22 39.0283 20.778 39.1843 20.31C39.3576 19.842 39.4443 19.3827 39.4443 18.932C39.0976 18.984 38.7163 19.1487 38.3003 19.426C37.8843 19.686 37.4943 20.0067 37.1303 20.388C36.7663 20.752 36.463 21.1334 36.2203 21.532C35.9776 21.9307 35.8563 22.2774 35.8563 22.572C35.8563 22.9534 36.0296 23.2654 36.3763 23.508Z" fill="white"/>
<path d="M48.0426 22.91C47.0546 22.806 46.2659 22.3727 45.6766 21.61C45.0872 20.8474 44.7926 19.8767 44.7926 18.698C44.7926 18.0047 44.8966 17.2854 45.1046 16.54C45.3126 15.7947 45.6072 15.0754 45.9886 14.382C46.3699 13.6714 46.8206 13.004 47.3406 12.38C47.8606 11.756 48.4239 11.2187 49.0306 10.768C49.9839 10.0574 50.8766 9.70204 51.7086 9.70204C52.2632 9.99671 52.8092 10.612 53.3466 11.548C53.4332 11.548 53.5112 11.548 53.5806 11.548C53.6499 11.5307 53.7279 11.522 53.8146 11.522C54.7332 11.522 55.1926 12.3367 55.1926 13.966C55.1926 15.058 55.0106 16.098 54.6466 17.086C54.2999 18.0567 53.8059 18.9407 53.1646 19.738C52.5406 20.5354 51.7866 21.2114 50.9026 21.766C50.0359 22.3034 49.0826 22.6847 48.0426 22.91ZM49.3686 14.72C49.0739 15.1187 48.7966 15.552 48.5366 16.02C48.2766 16.488 48.0512 16.9647 47.8606 17.45C47.6699 17.918 47.5226 18.3774 47.4186 18.828C47.3146 19.2614 47.2626 19.6514 47.2626 19.998C47.2626 20.414 47.3319 20.8127 47.4706 21.194C47.6092 21.5754 47.7652 21.792 47.9386 21.844C48.7186 21.6707 49.4292 21.35 50.0706 20.882C50.7292 20.3967 51.2926 19.7987 51.7606 19.088C52.2459 18.3774 52.6186 17.5714 52.8786 16.67C53.1559 15.7687 53.2946 14.8067 53.2946 13.784C53.2946 13.3334 53.2686 12.978 53.2166 12.718C53.1646 12.458 53.0779 12.2327 52.9566 12.042C52.1939 12.2674 51.5092 12.6314 50.9026 13.134C50.3132 13.6367 49.8019 14.1654 49.3686 14.72Z" fill="white"/>
<path d="M60.6631 9.39004C61.1138 9.52871 61.5385 9.84071 61.9371 10.326C62.3358 10.794 62.6305 11.314 62.8211 11.886C62.6305 12.354 62.3358 12.9174 61.9371 13.576C61.5385 14.2347 61.1398 14.9107 60.7411 15.604C60.3425 16.28 59.9785 16.93 59.6491 17.554C59.3371 18.1607 59.1551 18.6634 59.1031 19.062C59.3805 18.7674 59.6838 18.4294 60.0131 18.048C60.3598 17.6494 60.6891 17.2594 61.0011 16.878C61.3305 16.4794 61.6338 16.124 61.9111 15.812C62.1885 15.4827 62.4051 15.24 62.5611 15.084C62.8905 14.7374 63.2805 14.3387 63.7311 13.888C64.1818 13.42 64.6498 12.9867 65.1351 12.588C65.6378 12.172 66.1405 11.8254 66.6431 11.548C67.1458 11.2534 67.6051 11.106 68.0211 11.106C68.4718 11.106 68.8445 11.262 69.1391 11.574C69.4511 11.8687 69.6938 12.1807 69.8671 12.51C69.8671 12.5447 69.7978 12.5967 69.6591 12.666C69.5378 12.718 69.3558 12.8827 69.1131 13.16C68.8705 13.472 68.5931 13.9054 68.2812 14.46C67.9865 14.9974 67.6918 15.5867 67.3971 16.228C67.1198 16.852 66.8858 17.4934 66.6951 18.152C66.5045 18.8107 66.4091 19.4087 66.4091 19.946C66.4091 20.3794 66.4611 20.6567 66.5651 20.778C66.6865 20.8994 66.8511 20.96 67.0591 20.96C67.2498 20.96 67.4491 20.9167 67.6571 20.83C67.8651 20.7434 68.0298 20.7 68.1511 20.7C68.2205 20.7347 68.2725 20.8127 68.3071 20.934C68.3591 21.038 68.3851 21.1334 68.3851 21.22C68.2465 21.3414 68.0818 21.4627 67.8911 21.584C67.7005 21.7054 67.5011 21.818 67.2931 21.922C67.0851 22.026 66.8771 22.1127 66.6691 22.182C66.4785 22.2514 66.3051 22.286 66.1491 22.286C65.6465 22.286 65.2305 22.208 64.9011 22.052C64.5891 21.9134 64.3378 21.7227 64.1471 21.48C63.9738 21.2374 63.8525 20.9514 63.7831 20.622C63.7138 20.2754 63.6791 19.9114 63.6791 19.53C63.6791 19.322 63.6965 19.088 63.7311 18.828C63.7658 18.568 63.8351 18.2647 63.9391 17.918C64.0431 17.554 64.1905 17.1294 64.3811 16.644C64.5718 16.1414 64.8145 15.5434 65.1091 14.85C65.0745 14.85 64.8405 14.9714 64.4072 15.214C63.9738 15.4567 63.5058 15.8294 63.0031 16.332C62.1885 17.112 61.4518 17.8834 60.7931 18.646C60.1518 19.4087 59.4931 20.258 58.8171 21.194C58.4358 21.7314 58.0978 22.182 57.8031 22.546C57.5258 22.9274 57.2831 23.1787 57.0751 23.3C56.7111 23.092 56.4425 22.7974 56.2691 22.416C56.0958 22.052 55.9658 21.6707 55.8791 21.272C55.8791 20.9427 55.9225 20.5267 56.0091 20.024C56.1131 19.5214 56.2431 18.9667 56.3991 18.36C56.5725 17.736 56.7805 17.086 57.0231 16.41C57.2658 15.734 57.5345 15.058 57.8291 14.382C58.4878 12.8567 59.0858 11.6607 59.6231 10.794C60.1778 9.92738 60.5245 9.45938 60.6631 9.39004Z" fill="white"/>
<path d="M79.4622 11.496C79.6355 11.496 79.8348 11.5307 80.0602 11.6C80.3028 11.652 80.5195 11.73 80.7102 11.834C80.9008 11.9207 81.0568 12.016 81.1782 12.12C81.3168 12.224 81.3862 12.3194 81.3862 12.406C81.0395 13.134 80.7188 13.8707 80.4242 14.616C80.1295 15.344 79.8782 16.046 79.6702 16.722C79.4622 17.398 79.2975 18.0307 79.1762 18.62C79.0722 19.2094 79.0202 19.7207 79.0202 20.154C79.0202 20.6394 79.0722 21.0467 79.1762 21.376C79.2802 21.688 79.4535 21.9134 79.6962 22.052C79.4882 22.1907 79.2195 22.3034 78.8902 22.39C78.5608 22.4767 78.2662 22.52 78.0062 22.52C77.0702 22.52 76.6022 21.8787 76.6022 20.596C76.6022 19.608 76.9315 18.256 77.5902 16.54C77.2435 17.3374 76.8448 18.0914 76.3942 18.802C75.9435 19.4954 75.4842 20.1107 75.0162 20.648C74.5482 21.1854 74.0715 21.6274 73.5862 21.974C73.1182 22.3034 72.6848 22.5027 72.2862 22.572C71.6448 22.5374 71.1248 22.234 70.7262 21.662C70.3275 21.0727 70.1282 20.3274 70.1282 19.426C70.1282 18.4554 70.3362 17.4327 70.7522 16.358C71.1682 15.2834 71.6968 14.2867 72.3382 13.368C72.9968 12.4494 73.7075 11.6867 74.4702 11.08C75.2328 10.456 75.9695 10.1267 76.6802 10.092C76.8535 10.144 77.0442 10.248 77.2522 10.404C77.4775 10.56 77.6855 10.742 77.8762 10.95C78.0842 11.158 78.2575 11.3747 78.3962 11.6C78.5348 11.808 78.6128 11.99 78.6302 12.146C77.9368 12.25 77.2175 12.588 76.4722 13.16C75.7442 13.732 75.0768 14.4254 74.4702 15.24C73.8808 16.0374 73.3955 16.8954 73.0142 17.814C72.6328 18.7327 72.4422 19.5907 72.4422 20.388C72.4422 20.7174 72.5635 20.9254 72.8062 21.012C73.3088 20.908 73.8895 20.4834 74.5482 19.738C75.2068 18.9754 76.0042 17.8054 76.9402 16.228C77.1135 15.916 77.3042 15.5694 77.5122 15.188C77.7375 14.8067 77.9628 14.408 78.1882 13.992C78.4135 13.576 78.6302 13.16 78.8382 12.744C79.0635 12.3107 79.2715 11.8947 79.4622 11.496Z" fill="white"/>
<path d="M82.6791 20.336C82.6791 19.5734 82.8611 18.5074 83.2251 17.138C83.5891 15.7514 84.1004 14.1394 84.7591 12.302C85.8337 9.37271 86.8391 6.93738 87.7751 4.99604C88.7284 3.03738 89.6557 1.51204 90.5571 0.420044C90.7651 0.45471 91.0164 0.541376 91.3111 0.680043C91.623 0.81871 91.9264 0.97471 92.2211 1.14804C92.5157 1.30404 92.7757 1.46871 93.0011 1.64204C93.2437 1.81538 93.3997 1.95404 93.4691 2.05804C92.1171 3.65271 90.9297 5.36871 89.9071 7.20604C88.8844 9.04338 87.9484 11.1494 87.0991 13.524C86.3711 15.5694 85.8164 17.4154 85.4351 19.062C85.0537 20.6914 84.8631 22.052 84.8631 23.144C84.8631 23.4387 84.8631 23.6207 84.8631 23.69C84.8631 23.7594 84.8717 23.8287 84.8891 23.898C84.6464 23.8634 84.4384 23.8027 84.2651 23.716C84.0917 23.6294 83.9791 23.5254 83.9271 23.404C83.8924 23.3174 83.7971 23.1874 83.6411 23.014C83.4851 22.858 83.3464 22.7367 83.2251 22.65C83.0691 22.546 82.939 22.2774 82.8351 21.844C82.7311 21.3934 82.6791 20.8907 82.6791 20.336Z" fill="white"/>
<path d="M104.899 2.78604C105.558 2.78604 106.242 2.90738 106.953 3.15004C107.664 3.39271 108.288 3.70471 108.825 4.08604C108.652 4.97004 108.487 5.76738 108.331 6.47804C108.192 7.18871 108.062 7.83871 107.941 8.42804C107.82 9.00004 107.698 9.52871 107.577 10.014C107.473 10.482 107.369 10.924 107.265 11.34C106.849 12.9 106.416 14.3127 105.965 15.578C105.532 16.826 105.064 17.9527 104.561 18.958C104.076 19.9634 103.556 20.856 103.001 21.636C102.464 22.416 101.883 23.1007 101.259 23.69C100.652 24.262 100.046 24.73 99.4389 25.094C98.8322 25.458 98.2689 25.692 97.7489 25.796C97.0556 25.796 96.4142 25.718 95.8249 25.562C95.2356 25.406 94.7242 25.1894 94.2909 24.912C93.8749 24.652 93.5456 24.3314 93.3029 23.95C93.0776 23.586 92.9649 23.1787 92.9649 22.728C92.9649 22.2427 93.0862 21.636 93.3289 20.908C93.5716 20.1627 93.9442 19.2874 94.4469 18.282C94.6549 18.2994 94.8976 18.3514 95.1749 18.438C95.4522 18.5247 95.7296 18.6287 96.0069 18.75C96.2842 18.8714 96.5356 19.01 96.7609 19.166C96.9862 19.3047 97.1509 19.4434 97.2549 19.582C96.7002 20.154 96.2496 20.7867 95.9029 21.48C95.5562 22.156 95.3829 22.7454 95.3829 23.248C95.3829 23.5427 95.4349 23.8027 95.5389 24.028C95.6602 24.2707 95.8596 24.4874 96.1369 24.678C97.1942 24.2794 98.2256 23.534 99.2309 22.442C100.236 21.3674 101.129 20.024 101.909 18.412C102.377 17.4587 102.802 16.3667 103.183 15.136C103.564 13.9054 103.885 12.6747 104.145 11.444C104.422 10.196 104.63 9.00871 104.769 7.88204C104.925 6.73804 105.003 5.77604 105.003 4.99604C105.003 4.87471 104.994 4.71004 104.977 4.50204C104.977 4.27671 104.968 4.05138 104.951 3.82604C104.951 3.58338 104.942 3.36671 104.925 3.17604C104.908 2.98538 104.899 2.85538 104.899 2.78604Z" fill="white"/>
<path d="M111.037 22.91C110.049 22.806 109.26 22.3727 108.671 21.61C108.081 20.8474 107.787 19.8767 107.787 18.698C107.787 18.0047 107.891 17.2854 108.099 16.54C108.307 15.7947 108.601 15.0754 108.983 14.382C109.364 13.6714 109.815 13.004 110.335 12.38C110.855 11.756 111.418 11.2187 112.025 10.768C112.978 10.0574 113.871 9.70204 114.703 9.70204C115.257 9.99671 115.803 10.612 116.341 11.548C116.427 11.548 116.505 11.548 116.575 11.548C116.644 11.5307 116.722 11.522 116.809 11.522C117.727 11.522 118.187 12.3367 118.187 13.966C118.187 15.058 118.005 16.098 117.641 17.086C117.294 18.0567 116.8 18.9407 116.159 19.738C115.535 20.5354 114.781 21.2114 113.897 21.766C113.03 22.3034 112.077 22.6847 111.037 22.91ZM112.363 14.72C112.068 15.1187 111.791 15.552 111.531 16.02C111.271 16.488 111.045 16.9647 110.855 17.45C110.664 17.918 110.517 18.3774 110.413 18.828C110.309 19.2614 110.257 19.6514 110.257 19.998C110.257 20.414 110.326 20.8127 110.465 21.194C110.603 21.5754 110.759 21.792 110.933 21.844C111.713 21.6707 112.423 21.35 113.065 20.882C113.723 20.3967 114.287 19.7987 114.755 19.088C115.24 18.3774 115.613 17.5714 115.873 16.67C116.15 15.7687 116.289 14.8067 116.289 13.784C116.289 13.3334 116.263 12.978 116.211 12.718C116.159 12.458 116.072 12.2327 115.951 12.042C115.188 12.2674 114.503 12.6314 113.897 13.134C113.307 13.6367 112.796 14.1654 112.363 14.72Z" fill="white"/>
<path d="M126.517 21.428C126.188 21.1507 125.963 20.804 125.841 20.388C125.737 19.972 125.685 19.6167 125.685 19.322C125.685 18.958 125.729 18.646 125.815 18.386C125.746 18.386 125.59 18.5247 125.347 18.802C125.105 19.0794 124.836 19.4087 124.541 19.79C124.264 20.1714 123.987 20.544 123.709 20.908C123.432 21.272 123.224 21.5407 123.085 21.714C122.86 21.9567 122.643 22.1474 122.435 22.286C122.245 22.4247 122.089 22.5027 121.967 22.52C121.69 22.5027 121.395 22.442 121.083 22.338C120.789 22.2514 120.503 22.1214 120.225 21.948C119.965 21.7747 119.731 21.5667 119.523 21.324C119.333 21.0814 119.203 20.804 119.133 20.492C119.133 20.0067 119.142 19.608 119.159 19.296C119.194 18.984 119.255 18.646 119.341 18.282C119.497 17.6234 119.723 16.878 120.017 16.046C120.329 15.214 120.685 14.3994 121.083 13.602C121.482 12.7874 121.924 12.0334 122.409 11.34C122.912 10.6294 123.441 10.0747 123.995 9.67604C124.151 9.67604 124.333 9.69338 124.541 9.72804C124.749 9.74538 124.957 9.78871 125.165 9.85804C125.391 9.92738 125.599 10.014 125.789 10.118C125.997 10.2047 126.171 10.326 126.309 10.482C126.153 10.6554 125.755 11.236 125.113 12.224C124.489 13.212 123.787 14.6334 123.007 16.488C122.921 16.6787 122.817 16.956 122.695 17.32C122.574 17.684 122.453 18.0654 122.331 18.464C122.21 18.8627 122.106 19.2527 122.019 19.634C121.95 20.0154 121.915 20.3187 121.915 20.544C121.915 20.6827 121.933 20.7867 121.967 20.856C122.019 20.9254 122.063 20.9774 122.097 21.012C122.357 20.908 122.687 20.622 123.085 20.154C123.484 19.686 124.039 18.9667 124.749 17.996C124.923 17.7534 125.122 17.476 125.347 17.164C125.59 16.852 125.833 16.5227 126.075 16.176C126.318 15.812 126.543 15.4394 126.751 15.058C126.977 14.6767 127.159 14.2954 127.297 13.914C127.367 13.706 127.453 13.4634 127.557 13.186C127.679 12.8914 127.817 12.588 127.973 12.276C128.147 11.964 128.337 11.652 128.545 11.34C128.771 11.0107 129.031 10.7074 129.325 10.43C129.551 10.43 129.793 10.456 130.053 10.508C130.313 10.56 130.556 10.6294 130.781 10.716C131.024 10.7854 131.232 10.872 131.405 10.976C131.579 11.0627 131.709 11.158 131.795 11.262C131.483 12.0247 131.137 12.7787 130.755 13.524C130.374 14.2694 130.019 15.006 129.689 15.734C129.36 16.4447 129.083 17.1554 128.857 17.866C128.632 18.5767 128.519 19.27 128.519 19.946C128.519 20.31 128.545 20.6307 128.597 20.908C128.667 21.168 128.736 21.3934 128.805 21.584C128.875 21.7574 128.935 21.9047 128.987 22.026C129.057 22.1474 129.091 22.2514 129.091 22.338C129.091 22.3554 129.074 22.3814 129.039 22.416C129.022 22.4334 129.005 22.442 128.987 22.442C128.866 22.442 128.71 22.416 128.519 22.364C128.329 22.312 128.112 22.234 127.869 22.13C127.644 22.0434 127.41 21.9394 127.167 21.818C126.942 21.6967 126.725 21.5667 126.517 21.428Z" fill="white"/>
<path d="M131.669 21.48C131.756 20.9774 131.903 20.3187 132.111 19.504C132.336 18.672 132.596 17.7967 132.891 16.878C133.186 15.942 133.498 15.006 133.827 14.07C134.156 13.134 134.477 12.2934 134.789 11.548C135.014 11.0107 135.214 10.5947 135.387 10.3C135.56 9.98804 135.751 9.72804 135.959 9.52004C136.202 9.55471 136.453 9.61538 136.713 9.70204C136.973 9.78871 137.224 9.89271 137.467 10.014C137.71 10.1354 137.926 10.2654 138.117 10.404C138.308 10.5254 138.455 10.6467 138.559 10.768C138.091 11.3227 137.675 11.9554 137.311 12.666C136.964 13.3767 136.609 14.2867 136.245 15.396C137.181 14.564 138.004 13.7667 138.715 13.004C139.443 12.2414 140.119 11.392 140.743 10.456C140.847 10.3694 141.029 10.326 141.289 10.326C141.532 10.326 141.766 10.3694 141.991 10.456C142.216 10.5254 142.372 10.6294 142.459 10.768C142.147 11.6 141.991 12.4234 141.991 13.238C141.991 14.0007 142.104 14.5727 142.329 14.954C142.312 15.058 142.19 15.2574 141.965 15.552C141.757 15.8467 141.523 16.124 141.263 16.384C140.795 16.1414 140.379 15.812 140.015 15.396C139.651 14.9627 139.382 14.4947 139.209 13.992C138.394 14.564 137.701 15.1274 137.129 15.682C136.557 16.2194 136.063 16.826 135.647 17.502C135.248 18.1607 134.902 18.9234 134.607 19.79C134.33 20.6567 134.061 21.688 133.801 22.884C133.645 22.8667 133.454 22.806 133.229 22.702C133.021 22.6154 132.804 22.5027 132.579 22.364C132.371 22.2254 132.18 22.078 132.007 21.922C131.834 21.766 131.721 21.6187 131.669 21.48Z" fill="white"/>
<path d="M146.991 9.39004C147.442 9.52871 147.867 9.84071 148.265 10.326C148.664 10.794 148.959 11.314 149.149 11.886C148.959 12.354 148.664 12.9174 148.265 13.576C147.867 14.2347 147.468 14.9107 147.069 15.604C146.671 16.28 146.307 16.93 145.977 17.554C145.665 18.1607 145.483 18.6634 145.431 19.062C145.709 18.7674 146.012 18.4294 146.341 18.048C146.688 17.6494 147.017 17.2594 147.329 16.878C147.659 16.4794 147.962 16.124 148.239 15.812C148.517 15.4827 148.733 15.24 148.889 15.084C149.219 14.7374 149.609 14.3387 150.059 13.888C150.51 13.42 150.978 12.9867 151.463 12.588C151.966 12.172 152.469 11.8254 152.971 11.548C153.474 11.2534 153.933 11.106 154.349 11.106C154.8 11.106 155.173 11.262 155.467 11.574C155.779 11.8687 156.022 12.1807 156.195 12.51C156.195 12.5447 156.126 12.5967 155.987 12.666C155.866 12.718 155.684 12.8827 155.441 13.16C155.199 13.472 154.921 13.9054 154.609 14.46C154.315 14.9974 154.02 15.5867 153.725 16.228C153.448 16.852 153.214 17.4934 153.023 18.152C152.833 18.8107 152.737 19.4087 152.737 19.946C152.737 20.3794 152.789 20.6567 152.893 20.778C153.015 20.8994 153.179 20.96 153.387 20.96C153.578 20.96 153.777 20.9167 153.985 20.83C154.193 20.7434 154.358 20.7 154.479 20.7C154.549 20.7347 154.601 20.8127 154.635 20.934C154.687 21.038 154.713 21.1334 154.713 21.22C154.575 21.3414 154.41 21.4627 154.219 21.584C154.029 21.7054 153.829 21.818 153.621 21.922C153.413 22.026 153.205 22.1127 152.997 22.182C152.807 22.2514 152.633 22.286 152.477 22.286C151.975 22.286 151.559 22.208 151.229 22.052C150.917 21.9134 150.666 21.7227 150.475 21.48C150.302 21.2374 150.181 20.9514 150.111 20.622C150.042 20.2754 150.007 19.9114 150.007 19.53C150.007 19.322 150.025 19.088 150.059 18.828C150.094 18.568 150.163 18.2647 150.267 17.918C150.371 17.554 150.519 17.1294 150.709 16.644C150.9 16.1414 151.143 15.5434 151.437 14.85C151.403 14.85 151.169 14.9714 150.735 15.214C150.302 15.4567 149.834 15.8294 149.331 16.332C148.517 17.112 147.78 17.8834 147.121 18.646C146.48 19.4087 145.821 20.258 145.145 21.194C144.764 21.7314 144.426 22.182 144.131 22.546C143.854 22.9274 143.611 23.1787 143.403 23.3C143.039 23.092 142.771 22.7974 142.597 22.416C142.424 22.052 142.294 21.6707 142.207 21.272C142.207 20.9427 142.251 20.5267 142.337 20.024C142.441 19.5214 142.571 18.9667 142.727 18.36C142.901 17.736 143.109 17.086 143.351 16.41C143.594 15.734 143.863 15.058 144.157 14.382C144.816 12.8567 145.414 11.6607 145.951 10.794C146.506 9.92738 146.853 9.45938 146.991 9.39004Z" fill="white"/>
<path d="M165.79 11.496C165.964 11.496 166.163 11.5307 166.388 11.6C166.631 11.652 166.848 11.73 167.038 11.834C167.229 11.9207 167.385 12.016 167.506 12.12C167.645 12.224 167.714 12.3194 167.714 12.406C167.368 13.134 167.047 13.8707 166.752 14.616C166.458 15.344 166.206 16.046 165.998 16.722C165.79 17.398 165.626 18.0307 165.504 18.62C165.4 19.2094 165.348 19.7207 165.348 20.154C165.348 20.6394 165.4 21.0467 165.504 21.376C165.608 21.688 165.782 21.9134 166.024 22.052C165.816 22.1907 165.548 22.3034 165.218 22.39C164.889 22.4767 164.594 22.52 164.334 22.52C163.398 22.52 162.93 21.8787 162.93 20.596C162.93 19.608 163.26 18.256 163.918 16.54C163.572 17.3374 163.173 18.0914 162.722 18.802C162.272 19.4954 161.812 20.1107 161.344 20.648C160.876 21.1854 160.4 21.6274 159.914 21.974C159.446 22.3034 159.013 22.5027 158.614 22.572C157.973 22.5374 157.453 22.234 157.054 21.662C156.656 21.0727 156.456 20.3274 156.456 19.426C156.456 18.4554 156.664 17.4327 157.08 16.358C157.496 15.2834 158.025 14.2867 158.666 13.368C159.325 12.4494 160.036 11.6867 160.798 11.08C161.561 10.456 162.298 10.1267 163.008 10.092C163.182 10.144 163.372 10.248 163.58 10.404C163.806 10.56 164.014 10.742 164.204 10.95C164.412 11.158 164.586 11.3747 164.724 11.6C164.863 11.808 164.941 11.99 164.958 12.146C164.265 12.25 163.546 12.588 162.8 13.16C162.072 13.732 161.405 14.4254 160.798 15.24C160.209 16.0374 159.724 16.8954 159.342 17.814C158.961 18.7327 158.77 19.5907 158.77 20.388C158.77 20.7174 158.892 20.9254 159.134 21.012C159.637 20.908 160.218 20.4834 160.876 19.738C161.535 18.9754 162.332 17.8054 163.268 16.228C163.442 15.916 163.632 15.5694 163.84 15.188C164.066 14.8067 164.291 14.408 164.516 13.992C164.742 13.576 164.958 13.16 165.166 12.744C165.392 12.3107 165.6 11.8947 165.79 11.496Z" fill="white"/>
<path d="M169.007 20.336C169.007 19.5734 169.189 18.5074 169.553 17.138C169.917 15.7514 170.429 14.1394 171.087 12.302C172.162 9.37271 173.167 6.93738 174.103 4.99604C175.057 3.03738 175.984 1.51204 176.885 0.420044C177.093 0.45471 177.345 0.541376 177.639 0.680043C177.951 0.81871 178.255 0.97471 178.549 1.14804C178.844 1.30404 179.104 1.46871 179.329 1.64204C179.572 1.81538 179.728 1.95404 179.797 2.05804C178.445 3.65271 177.258 5.36871 176.235 7.20604C175.213 9.04338 174.277 11.1494 173.427 13.524C172.699 15.5694 172.145 17.4154 171.763 19.062C171.382 20.6914 171.191 22.052 171.191 23.144C171.191 23.4387 171.191 23.6207 171.191 23.69C171.191 23.7594 171.2 23.8287 171.217 23.898C170.975 23.8634 170.767 23.8027 170.593 23.716C170.42 23.6294 170.307 23.5254 170.255 23.404C170.221 23.3174 170.125 23.1874 169.969 23.014C169.813 22.858 169.675 22.7367 169.553 22.65C169.397 22.546 169.267 22.2774 169.163 21.844C169.059 21.3934 169.007 20.8907 169.007 20.336Z" fill="white"/>
</svg>
